<svg xmlns="http://www.w3.org/2000/svg" xmlns:xlink="http://www.w3.org/1999/xlink" width="500" zoomAndPan="magnify" viewBox="0 0 375 374.999991" height="500" preserveAspectRatio="xMidYMid meet" version="1.0"><defs><g/><clipPath id="c491ae8be2"><path d="M 92.113281 90.816406 L 279.613281 90.816406 L 279.613281 278 L 92.113281 278 Z M 92.113281 90.816406 " clip-rule="nonzero"/></clipPath></defs><g clip-path="url(#c491ae8be2)"><path fill="#122620" d="M 185.699219 277.988281 C 133.996094 277.988281 92.113281 235.816406 92.113281 184.402344 C 92.113281 132.988281 133.996094 90.816406 185.699219 90.816406 C 237.402344 90.816406 279.285156 132.699219 279.285156 184.402344 C 279.285156 236.105469 237.113281 277.988281 185.699219 277.988281 Z M 185.699219 96.59375 C 137.175781 96.59375 97.890625 135.875 97.890625 184.402344 C 97.890625 232.929688 137.175781 272.210938 185.699219 272.210938 C 234.226562 272.210938 273.507812 232.929688 273.507812 184.402344 C 273.507812 135.875 233.9375 96.59375 185.699219 96.59375 Z M 185.699219 96.59375 " fill-opacity="1" fill-rule="nonzero"/></g><path stroke-linecap="butt" transform="matrix(1.465975, 0, 0, 1.465975, 69.32406, 91.156364)" fill="none" stroke-linejoin="miter" d="M 13.352461 80.48442 C 13.352461 81.630201 13.704189 82.200427 14.410311 82.200427 C 14.796679 82.200427 15.207029 82.061868 15.646689 81.782084 C 16.086349 81.515623 16.438078 81.275808 16.704539 81.06264 C 17.794363 80.239276 18.758952 78.994903 19.595639 77.332188 C 20.448313 75.672137 21.066503 74.161304 21.452871 72.805018 C 21.716667 71.87507 21.86322 70.929134 21.889867 69.972539 C 21.916513 69.029268 21.929836 67.984741 21.929836 66.841624 C 21.279671 67.212005 20.528252 67.878157 19.675577 68.834751 C 18.83889 69.794011 18.172738 70.572076 17.68245 71.168948 C 16.709868 72.365358 15.74528 73.809575 14.788685 75.498937 C 13.832091 77.188299 13.352461 78.84835 13.352461 80.48442 Z M 12.614365 53.753068 C 12.614365 52.34349 12.992739 51.080466 13.752152 49.963995 C 14.522224 48.847524 15.441514 47.949551 16.504693 47.270075 C 17.567872 46.593265 18.479168 46.252195 19.238581 46.252195 C 19.835453 46.252195 20.280443 46.473358 20.57355 46.910353 C 20.87998 47.336691 20.898632 48.069458 20.634836 49.105991 C 19.982007 49.265867 19.5157 49.359128 19.238581 49.385775 C 18.97212 49.412421 18.750958 49.497688 18.577758 49.644242 C 18.420546 49.777472 18.119446 50.089231 17.68245 50.582184 C 16.58996 51.778593 16.086349 52.743181 16.166288 53.475948 C 16.259549 54.206051 16.696545 54.890856 17.482604 55.530362 C 18.265999 56.15388 19.24391 56.931946 20.413673 57.864559 C 21.59676 58.781184 22.702572 60.030885 23.725782 61.613663 C 24.922191 60.790299 26.15324 59.83104 27.416264 58.741215 L 35.015728 53.435979 C 35.721849 52.943027 36.334709 52.604622 36.851643 52.418099 C 37.371242 52.231576 37.816231 52.138315 38.189276 52.138315 C 38.839441 52.138315 39.113895 52.410105 39.007311 52.95635 C 38.900727 53.489272 38.381128 54.027522 37.45118 54.571103 L 31.90613 58.421462 C 31.692961 58.528046 31.226654 58.839805 30.50721 59.359404 C 29.803754 59.879003 29.025688 60.449229 28.175678 61.075412 C 27.336326 61.701595 26.619547 62.285144 26.02001 62.831389 C 25.420473 63.374969 25.09539 63.729362 25.042098 63.889238 C 24.988806 64.166358 25.068744 64.691285 25.281913 65.464022 C 25.508405 66.220771 25.660287 67.212005 25.740226 68.43506 C 25.820164 69.66078 25.654958 71.155625 25.241944 72.924925 C 24.82893 74.694225 23.94428 76.748638 22.587994 79.088165 C 21.391585 81.110602 20.080597 82.592125 18.657697 83.538061 C 17.248119 84.494655 15.918479 84.974285 14.668778 84.974285 C 13.525661 84.974285 12.587719 84.587916 11.857616 83.817845 C 11.111525 83.058431 10.73848 81.94729 10.73848 80.48442 C 10.73848 78.637846 11.191464 76.833906 12.094766 75.077929 C 12.98741 73.33794 14.058582 71.728516 15.308284 70.252323 C 16.571308 68.789453 17.727748 67.531758 18.777604 66.481902 C 19.843447 65.418723 20.541575 64.640658 20.871986 64.147705 C 20.221822 63.004588 19.430433 62.013354 18.500485 61.174002 C 17.581195 60.323992 16.669899 59.545926 15.766596 58.839805 C 14.86063 58.123026 14.10921 57.371606 13.512338 56.585547 C 12.912801 55.788829 12.614365 54.845557 12.614365 53.753068 Z M 35.98831 58.741215 C 35.98831 57.598098 36.2601 56.180526 36.806345 54.491164 C 37.349925 52.804467 38.109338 51.128428 39.079256 49.465713 C 40.062496 47.802997 41.194955 46.433388 42.471302 45.356887 C 43.760973 44.264397 45.109264 43.720817 46.518842 43.720817 C 47.837823 43.720817 48.901002 44.099191 49.711043 44.85594 C 50.537072 45.615354 51.02736 46.393419 51.187236 47.190137 C 51.347113 47.976197 51.075323 48.367894 50.369201 48.367894 C 49.825621 48.367894 49.266054 48.056135 48.695827 47.429952 C 48.122937 46.806434 47.456784 46.49201 46.700036 46.49201 C 46.100499 46.49201 45.375725 46.846403 44.525715 47.549859 C 43.686363 48.255981 42.663154 49.644242 41.453422 51.719972 C 40.907177 52.596628 40.403566 53.726422 39.937259 55.109353 C 39.484276 56.49495 39.257784 57.869888 39.257784 59.239497 C 39.364369 59.132912 39.404338 59.092943 39.377692 59.119589 C 39.351046 59.146235 39.444307 59.047645 39.657476 58.821153 L 40.315634 57.843242 C 40.755294 57.193077 41.26157 56.348396 41.831796 55.309199 C 42.404687 54.272666 42.988236 53.22814 43.587773 52.178284 C 44.18731 51.115105 44.73089 50.217132 45.223843 49.484365 C 45.716795 48.740939 46.09517 48.367894 46.36163 48.367894 C 47.344871 48.367894 47.917762 48.727616 48.074974 49.444396 C 48.23485 50.150517 48.301465 51.021844 48.274819 52.058377 C 48.248173 53.081586 48.349428 54.11279 48.57592 55.149323 C 48.893008 56.625516 49.393955 57.704682 50.070765 58.381493 C 50.763563 59.060968 51.541629 59.399373 52.404962 59.399373 C 53.934448 59.399373 55.623809 58.474754 57.473048 56.625516 C 58.243119 55.922059 58.789364 55.335845 59.109117 54.872203 C 59.439529 54.405897 59.879189 53.872975 60.425434 53.276103 C 60.795814 52.729858 61.283438 52.458068 61.88031 52.458068 C 62.479847 52.458068 62.738314 52.961679 62.658376 53.97423 C 62.578437 54.970794 61.507265 56.481627 59.447522 58.5014 L 56.993418 60.457223 C 55.410641 61.547047 53.881155 62.093292 52.404962 62.093292 C 51.048677 62.093292 49.86559 61.688272 48.853039 60.875566 C 47.843153 60.052202 47.065087 59.039651 46.518842 57.843242 C 45.975262 56.646833 45.703472 55.477069 45.703472 54.331288 C 45.330427 54.611072 44.89876 55.215938 44.405808 56.148551 C 43.912855 57.065176 43.382598 58.05641 42.809707 59.119589 C 42.236817 60.185433 41.653267 61.107387 41.05373 61.893447 C 40.456858 62.676841 39.857321 63.071203 39.257784 63.071203 C 37.728299 63.071203 36.798351 62.716811 36.465275 62.013354 C 36.145522 61.307233 35.98831 60.217408 35.98831 58.741215 Z M 36.721077 30.554987 C 36.721077 29.848866 37.379235 29.102775 38.695552 28.31938 C 39.998545 27.522662 41.647938 26.744597 43.641065 25.985183 C 45.623534 25.215112 47.717916 24.490338 49.926876 23.810863 C 52.119849 23.134052 54.147616 22.547838 56.010177 22.054886 C 57.859416 21.564598 59.247677 21.183559 60.18029 20.919763 C 61.323407 20.586687 62.122789 20.39217 62.573108 20.338878 C 63.039415 20.285586 63.337851 20.115051 63.471081 19.821944 C 63.617635 19.515514 63.769517 18.897325 63.929394 17.964712 C 64.369054 15.73177 64.87533 14.196956 65.445556 13.357604 C 66.018447 12.507594 66.578015 12.081257 67.121595 12.081257 C 67.561255 12.081257 67.926306 12.313077 68.219413 12.779384 C 68.525843 13.24569 68.677726 13.802594 68.677726 14.455423 C 68.677726 14.948375 68.645751 15.15355 68.579135 15.073612 C 68.525843 14.993674 68.525843 15.172202 68.579135 15.611863 C 68.579135 15.718447 68.592458 15.851677 68.619105 16.011554 C 68.659074 16.171431 68.677726 16.389928 68.677726 16.669712 C 68.677726 17.373169 68.539166 17.727562 68.259382 17.727562 C 67.992922 17.727562 67.721132 17.767531 67.441348 17.847469 C 67.174887 17.927407 67.041656 18.404372 67.041656 19.283693 C 67.694485 19.283693 68.411265 19.190432 69.197325 19.003909 C 69.994043 18.804064 70.69217 18.678827 71.291707 18.625535 C 73.684525 18.185874 76.080008 17.794177 78.472827 17.447778 C 80.865645 17.088056 83.319749 16.909527 85.83514 16.909527 C 87.138133 16.909527 88.089398 17.181317 88.686271 17.727562 C 89.285808 18.271142 89.504305 18.817387 89.344429 19.363631 C 89.184552 19.907212 88.58768 20.179002 87.548483 20.179002 C 87.441898 19.742006 87.369954 19.534166 87.329985 19.560812 C 87.303339 19.587459 87.050201 19.547489 86.573236 19.440905 C 86.346744 19.390277 85.907084 19.363631 85.254255 19.363631 C 84.111138 19.363631 82.594976 19.488868 80.708433 19.742006 C 78.832549 19.981821 76.88472 20.266934 74.862282 20.60001 C 72.853167 20.919763 71.059886 21.231522 69.477108 21.537952 C 67.907654 21.828394 66.876451 22.02824 66.383498 22.134824 L 64.747429 38.892547 C 64.694136 39.278915 64.680813 39.689264 64.707459 40.128925 C 64.734105 40.555262 64.747429 40.986929 64.747429 41.426589 C 64.747429 41.970169 64.707459 42.324562 64.627521 42.481774 C 64.547583 42.641651 64.507614 43.028019 64.507614 43.640879 C 64.507614 44.837288 64.53426 46.212226 64.587552 47.768357 C 64.640844 49.311166 64.614198 50.523562 64.507614 51.400219 C 64.454322 51.893171 64.409023 52.863089 64.369054 54.312636 C 64.342408 55.748859 64.315762 57.416904 64.289116 59.319435 C 64.26247 61.221965 64.249147 63.143148 64.249147 65.085647 C 64.249147 67.012159 64.249147 68.768136 64.249147 70.350914 C 64.249147 71.933691 64.275793 73.076808 64.329085 73.782929 C 64.329085 74.379802 64.3957 75.291098 64.528931 76.516818 C 64.675484 77.739873 64.707459 78.843021 64.627521 79.826261 C 64.547583 80.812166 64.150556 81.302454 63.431112 81.302454 C 62.407902 81.302454 61.781719 80.732228 61.555228 79.586446 C 61.344724 78.443329 61.238139 77.380151 61.238139 76.39691 C 61.078263 74.441088 60.977008 72.152189 60.937038 69.532879 C 60.910392 66.913569 60.910392 64.299588 60.937038 61.693601 C 60.977008 59.074291 60.998324 56.785392 60.998324 54.832234 L 61.238139 50.981875 C 61.238139 50.222462 61.238139 49.052699 61.238139 47.469921 C 61.238139 45.887144 61.264785 44.211105 61.318077 42.441805 C 61.37137 40.67517 61.424662 39.057752 61.475289 37.594882 C 61.528582 36.118689 61.60852 35.082157 61.715104 34.48262 C 61.835011 33.939039 61.909621 33.28621 61.936267 32.529462 C 61.962913 31.756725 62.002882 31.098567 62.056174 30.554987 L 62.794271 22.952859 C 62.567779 23.006151 62.088149 23.120729 61.358047 23.291264 C 60.625279 23.451141 60.039065 23.584371 59.60207 23.690955 C 56.929467 24.343785 54.382102 25.041912 51.959973 25.785338 C 49.540508 26.518105 47.046435 27.376109 44.480417 28.359349 C 43.987464 28.572518 43.542475 28.804339 43.142783 29.057477 C 42.732434 29.297292 42.27945 29.523783 41.786498 29.736952 C 41.136333 30.014071 40.715325 30.208588 40.531467 30.315172 C 40.331621 30.421756 40.230366 30.560316 40.230366 30.733516 C 40.230366 30.893392 40.097136 31.24512 39.83334 31.791365 C 39.606848 31.844657 39.385685 31.884626 39.175181 31.911272 C 38.962013 31.937919 38.714204 31.951242 38.437085 31.951242 C 37.997425 31.951242 37.605727 31.85798 37.259328 31.671458 C 36.899606 31.471612 36.721077 31.098567 36.721077 30.554987 Z M 68.659074 60.217408 L 69.16002 50.981875 C 69.210648 50.382338 69.26394 49.665558 69.317232 48.826207 C 69.370524 47.976197 69.423816 47.251423 69.477108 46.651886 C 69.597016 43.925992 69.943415 41.232073 70.516306 38.572794 C 71.086532 35.900191 71.699392 33.254235 72.349556 30.63226 C 72.722602 29.542436 73.015708 28.825656 73.228877 28.479257 C 73.455369 28.119535 73.759134 27.941006 74.145502 27.941006 C 74.305379 27.941006 74.491902 27.954329 74.70507 27.980975 C 74.931562 28.007621 75.176706 28.04759 75.443167 28.100882 C 75.722951 29.363907 75.669658 30.853423 75.28329 32.569431 C 74.910245 34.282774 74.611809 35.846899 74.385317 37.256477 C 73.78578 41.018904 73.295492 45.16237 72.909124 49.684211 C 72.536079 54.206051 72.349556 58.509394 72.349556 62.591574 L 72.589371 71.747168 L 73.247529 70.191037 C 74.006943 68.011387 74.643784 66.175472 75.163383 64.685956 C 75.682981 63.183117 76.279854 61.693601 76.959329 60.217408 C 77.636139 58.741215 78.547436 56.945269 79.690553 54.832234 C 80.290089 53.739745 80.876303 52.815126 81.44653 52.058377 C 82.01942 51.288305 82.9094 50.901937 84.119132 50.901937 C 84.718669 50.901937 85.137012 51.338933 85.376827 52.218253 C 85.616642 53.081586 85.763195 54.032852 85.816487 55.069384 C 85.883103 56.108582 85.915078 56.873324 85.915078 57.363612 C 85.915078 58.879774 85.955047 60.172109 86.034985 61.235288 C 86.114923 62.298467 86.426683 63.348323 86.972927 64.38752 C 88.222629 64.107736 89.280478 63.303024 90.143811 61.973385 C 91.023132 60.643745 91.814521 59.487305 92.517978 58.5014 C 92.904346 57.904528 93.256074 57.304991 93.575827 56.705454 C 93.908903 56.108582 94.241979 55.482399 94.572391 54.832234 C 95.065343 53.952913 95.457041 53.356041 95.750148 53.036288 C 96.056578 52.703212 96.368337 52.538006 96.68809 52.538006 C 96.861289 52.538006 97.159725 52.591298 97.586063 52.697883 C 97.865847 53.681123 97.812554 54.472512 97.426186 55.069384 C 97.053141 55.668921 96.648121 56.375042 96.20846 57.185083 C 95.824757 57.904528 95.305158 58.821153 94.652329 59.937624 C 94.002164 61.054095 93.264068 62.146584 92.438039 63.209763 C 91.627998 64.259619 90.756671 65.157592 89.826723 65.903682 C 88.907433 66.633785 87.956168 66.998836 86.972927 66.998836 C 85.176981 66.998836 84.007218 65.392077 83.460973 62.17323 C 83.301097 61.25394 83.189183 60.017562 83.122568 58.461431 C 83.069276 56.9053 83.04263 55.557008 83.04263 54.411226 C 82.669585 54.69101 82.211272 55.322522 81.667692 56.308427 C 81.121447 57.278345 80.575203 58.376163 80.031622 59.599219 C 79.485378 60.822274 78.979102 62.013354 78.51546 63.169794 C 78.049154 64.312911 77.684102 65.184238 77.417642 65.783775 C 76.764813 67.473137 76.234555 69.154504 75.821541 70.830543 C 75.408527 72.519905 74.958208 74.129328 74.465255 75.658814 C 74.198795 76.53547 73.887035 77.095038 73.527313 77.332188 C 73.180914 77.585326 72.624011 77.713227 71.851275 77.713227 C 71.254402 77.713227 70.76145 77.193628 70.375082 76.157095 C 70.002036 75.117898 69.690277 73.822898 69.437139 72.266767 C 69.197325 70.710636 69.02679 69.101212 68.920205 67.438497 C 68.813621 65.789104 68.747006 64.299588 68.72036 62.969948 C 68.680391 61.626986 68.659074 60.71036 68.659074 60.217408 Z M 94.156712 58.101709 C 94.156712 57.278345 94.249973 56.121905 94.436496 54.632389 C 94.636341 53.129549 94.908131 51.600064 95.25453 50.043933 C 95.614253 48.487802 96.04059 47.171485 96.530878 46.094983 C 97.02383 45.002494 97.570075 44.458914 98.166947 44.458914 C 98.539993 44.458914 98.779807 44.48556 98.886392 44.538852 C 99.006299 44.592144 99.198151 44.645436 99.464612 44.696064 C 99.904272 45.615354 99.944241 46.785117 99.584519 48.208018 C 99.23812 49.617595 98.926361 51.168398 98.646577 52.855095 C 98.273532 55.263901 97.961773 57.390258 97.708635 59.239497 C 97.46882 61.088735 97.623367 63.183117 98.166947 65.522643 C 98.979653 65.312139 99.81634 64.632664 100.682338 63.489547 C 101.558994 62.34643 102.416998 60.995473 103.253685 59.439342 C 104.10636 57.883211 104.844456 56.415012 105.467975 55.03208 C 106.094157 53.63316 106.573787 52.583305 106.904198 51.879848 C 107.183982 51.333603 107.458437 50.70742 107.722233 50.003964 C 108.002017 49.297842 108.327099 48.661001 108.700145 48.08811 C 109.086513 47.517884 109.526173 47.230106 110.016461 47.230106 C 110.562706 47.230106 110.834496 47.517884 110.834496 48.08811 C 110.834496 48.661001 110.682613 49.359128 110.376183 50.182492 C 110.083076 50.995198 109.757994 51.813233 109.398272 52.636597 C 109.03855 53.449302 108.753437 54.067492 108.540268 54.491164 C 108.209857 55.143993 107.690258 56.233818 106.984137 57.763303 C 106.28068 59.292789 105.449322 60.902212 104.492728 62.591574 C 103.546792 64.280936 102.515588 65.709166 101.399117 66.881593 C 100.282647 68.051357 99.179499 68.634906 98.087009 68.634906 C 97.316937 68.634906 96.578841 68.283178 95.87272 67.579721 C 95.169263 66.860277 94.702956 65.943651 94.476465 64.824516 C 94.263296 63.708045 94.156712 62.538282 94.156712 61.315226 C 94.156712 60.092171 94.156712 59.020999 94.156712 58.101709 Z M 118.425965 67.318589 C 117.33614 67.318589 116.366223 66.966861 115.513548 66.26074 C 114.676861 65.557283 114.037355 64.824516 113.600359 64.067767 C 112.627777 62.205206 112.070874 60.012233 111.924321 57.48352 C 111.79109 54.944148 111.942973 52.644591 112.382633 50.582184 C 112.489218 49.982647 112.635771 49.265867 112.822294 48.426516 C 113.022139 47.576505 113.307252 46.825086 113.680298 46.172257 C 114.064001 45.508769 114.530308 45.175693 115.076552 45.175693 C 116.326254 45.175693 116.936449 45.602031 116.909803 46.452041 C 116.883157 47.291392 116.651336 48.599715 116.211676 50.382338 C 115.788003 52.151638 115.574834 54.41922 115.574834 57.185083 C 115.574834 58.008447 115.681419 58.994353 115.894587 60.13747 C 116.105091 61.280587 116.446161 62.293138 116.909803 63.169794 C 117.37611 64.033127 117.962323 64.467458 118.66578 64.467458 C 119.545101 64.467458 120.541664 64.086419 121.658135 63.32967 C 122.774606 62.556934 123.80581 61.701595 124.751746 60.755659 C 125.70834 59.799064 126.379821 59.074291 126.76619 58.581338 C 126.872774 58.474754 127.17121 58.109703 127.664163 57.48352 C 128.154451 56.860001 128.740665 56.15388 129.417475 55.370485 C 130.09695 54.571103 130.763102 53.872975 131.413267 53.276103 C 132.066096 52.676566 132.58303 52.37813 132.969398 52.37813 C 133.355766 52.37813 133.547618 52.703212 133.547618 53.356041 C 133.547618 53.739745 133.289151 54.325959 132.769552 55.109353 C 132.252618 55.895413 131.631765 56.726771 130.914985 57.603427 C 130.208864 58.469425 129.51873 59.287459 128.839255 60.057531 C 128.162444 60.816945 127.656169 61.360525 127.323093 61.693601 C 126.672928 62.34643 125.894863 63.124496 124.988896 64.027798 C 124.098917 64.917777 123.107682 65.690514 122.017857 66.340678 C 120.928033 66.993507 119.728959 67.318589 118.425965 67.318589 Z M 115.814649 34.882311 C 115.814649 33.965686 116.059793 33.166303 116.552746 32.489493 C 117.043034 31.796694 117.589278 31.450295 118.188815 31.450295 C 118.83898 31.450295 119.385224 31.86331 119.82222 32.689338 C 120.581634 34.2055 120.674895 35.388586 120.102004 36.238597 C 119.531778 37.077948 118.83365 37.496292 118.007622 37.496292 C 117.477365 37.496292 116.976418 37.283123 116.512776 36.856786 C 116.04647 36.41979 115.814649 35.758967 115.814649 34.882311 Z M 130.272814 60.795628 C 130.272814 56.873324 130.366076 52.948356 130.552598 49.026052 C 130.752444 45.103749 131.010911 41.320005 131.330664 37.674821 C 131.383956 37.288452 131.49054 36.393144 131.650417 34.983566 C 131.820952 33.558 132.042114 31.911272 132.308575 30.035388 C 132.585694 28.146181 132.913441 26.304936 133.283822 24.50899 C 133.67019 22.713044 134.10985 21.218199 134.602803 20.02179 C 135.093091 18.822716 135.61269 18.225844 136.15627 18.225844 C 137.248759 18.225844 137.872278 18.510957 138.032154 19.083848 C 138.192031 19.654074 138.133409 20.432139 137.853625 21.418044 C 137.587164 22.387962 137.34735 23.499104 137.134181 24.748805 C 136.430724 28.777693 135.791218 33.139657 135.220992 37.834697 C 134.648101 42.516414 134.208441 47.171485 133.904676 51.79991 C 133.611569 56.428335 133.465015 60.67572 133.465015 64.547397 C 133.5716 64.440812 133.896682 63.854598 134.442927 62.79142 C 134.986507 61.725576 135.679305 60.377284 136.515992 58.741215 C 137.368667 57.105145 138.279963 55.375814 139.24988 53.555887 C 140.233121 51.733295 141.219026 50.017287 142.202266 48.407863 C 143.185507 46.79844 144.070157 45.495446 144.856216 44.498883 C 145.652934 43.486331 146.265794 42.982721 146.689467 42.982721 C 147.888541 42.982721 148.418798 43.267834 148.285567 43.840724 C 148.152337 44.410951 147.702018 45.189016 146.929282 46.172257 C 146.172533 47.144839 145.386473 48.314602 144.576432 49.684211 C 144.349941 50.003964 144.144766 50.315723 143.958243 50.622153 C 143.771721 50.91526 143.566546 51.227019 143.340054 51.560095 C 142.847102 52.370136 142.522019 53.009642 142.362143 53.475948 C 142.202266 53.93959 142.135651 54.512481 142.162297 55.189292 C 142.188943 55.868767 142.282205 56.998561 142.442081 58.581338 C 142.548665 59.724455 142.780486 61.181996 143.140208 62.951296 C 143.499931 64.717931 143.918274 66.487231 144.395239 68.256531 C 144.888192 70.039154 145.327852 71.475378 145.71422 72.565203 C 146.151216 73.588413 146.532255 74.347826 146.849343 74.840779 C 147.182419 75.331067 147.400917 75.850665 147.507502 76.39691 C 147.294333 76.607414 147.075835 76.833906 146.849343 77.073721 C 146.636175 77.326859 146.372378 77.452095 146.052625 77.452095 C 145.932718 77.452095 145.71422 77.398803 145.394467 77.292219 C 144.741638 76.97513 144.184735 76.402239 143.718428 75.578875 C 143.252122 74.76617 142.865754 73.894843 142.561988 72.964895 C 142.268882 72.034946 142.015744 71.243557 141.802575 70.590728 C 141.19238 68.794782 140.691433 66.958867 140.30773 65.085647 C 139.934685 63.19644 139.529664 61.32855 139.090004 59.479311 L 135.498111 67.318589 C 135.114408 68.514998 134.768009 69.754041 134.461579 71.030389 C 134.168472 72.320059 133.84339 73.396561 133.483668 74.262559 C 133.139933 75.139215 132.692279 75.578875 132.148699 75.578875 C 131.442577 75.578875 130.989594 75.317744 130.792413 74.80081 C 130.60589 74.281211 130.525952 73.641705 130.552598 72.884956 C 130.579244 72.125543 130.565921 71.414092 130.512629 70.750605 C 130.459337 70.151068 130.406045 69.687426 130.352753 69.35435 C 130.29946 69.034597 130.272814 68.496346 130.272814 67.736933 Z M 130.272814 60.795628 " stroke="#fffef9" stroke-width="6.128468" stroke-opacity="1" stroke-miterlimit="4"/><g fill="#122620" fill-opacity="1"><g transform="translate(87.465504, 189.376706)"><g><path d="M 1.4375 19.765625 C 1.4375 21.441406 1.957031 22.28125 3 22.28125 C 3.550781 22.28125 4.144531 22.078125 4.78125 21.671875 C 5.425781 21.273438 5.945312 20.921875 6.34375 20.609375 C 7.945312 19.410156 9.363281 17.59375 10.59375 15.15625 C 11.832031 12.71875 12.734375 10.5 13.296875 8.5 C 13.691406 7.144531 13.910156 5.769531 13.953125 4.375 C 13.992188 2.976562 14.015625 1.441406 14.015625 -0.234375 C 13.054688 0.316406 11.957031 1.289062 10.71875 2.6875 C 9.476562 4.09375 8.5 5.234375 7.78125 6.109375 C 6.34375 7.867188 4.925781 9.984375 3.53125 12.453125 C 2.132812 14.929688 1.4375 17.367188 1.4375 19.765625 Z M 0.359375 -19.40625 C 0.359375 -21.476562 0.914062 -23.332031 2.03125 -24.96875 C 3.15625 -26.613281 4.492188 -27.929688 6.046875 -28.921875 C 7.609375 -29.921875 8.945312 -30.421875 10.0625 -30.421875 C 10.9375 -30.421875 11.59375 -30.101562 12.03125 -29.46875 C 12.476562 -28.832031 12.5 -27.753906 12.09375 -26.234375 C 11.132812 -25.992188 10.457031 -25.851562 10.0625 -25.8125 C 9.664062 -25.769531 9.347656 -25.648438 9.109375 -25.453125 C 8.867188 -25.253906 8.425781 -24.796875 7.78125 -24.078125 C 6.1875 -22.316406 5.445312 -20.894531 5.5625 -19.8125 C 5.6875 -18.738281 6.328125 -17.742188 7.484375 -16.828125 C 8.640625 -15.910156 10.078125 -14.769531 11.796875 -13.40625 C 13.515625 -12.050781 15.132812 -10.21875 16.65625 -7.90625 C 18.40625 -9.101562 20.203125 -10.5 22.046875 -12.09375 L 33.171875 -19.890625 C 34.210938 -20.609375 35.113281 -21.101562 35.875 -21.375 C 36.632812 -21.65625 37.289062 -21.796875 37.84375 -21.796875 C 38.800781 -21.796875 39.203125 -21.394531 39.046875 -20.59375 C 38.890625 -19.800781 38.128906 -19.003906 36.765625 -18.203125 L 28.625 -12.578125 C 28.3125 -12.421875 27.632812 -11.960938 26.59375 -11.203125 C 25.550781 -10.441406 24.410156 -9.601562 23.171875 -8.6875 C 21.941406 -7.769531 20.882812 -6.910156 20 -6.109375 C 19.125 -5.304688 18.644531 -4.785156 18.5625 -4.546875 C 18.488281 -4.148438 18.609375 -3.390625 18.921875 -2.265625 C 19.242188 -1.148438 19.460938 0.300781 19.578125 2.09375 C 19.703125 3.894531 19.460938 6.09375 18.859375 8.6875 C 18.265625 11.28125 16.96875 14.296875 14.96875 17.734375 C 13.21875 20.679688 11.300781 22.851562 9.21875 24.25 C 7.144531 25.65625 5.191406 26.359375 3.359375 26.359375 C 1.679688 26.359375 0.304688 25.796875 -0.765625 24.671875 C -1.847656 23.554688 -2.390625 21.921875 -2.390625 19.765625 C -2.390625 17.046875 -1.726562 14.410156 -0.40625 11.859375 C 0.90625 9.304688 2.476562 6.953125 4.3125 4.796875 C 6.144531 2.640625 7.835938 0.785156 9.390625 -0.765625 C 10.953125 -2.328125 11.972656 -3.46875 12.453125 -4.1875 C 11.492188 -5.863281 10.335938 -7.320312 8.984375 -8.5625 C 7.628906 -9.800781 6.289062 -10.9375 4.96875 -11.96875 C 3.65625 -13.007812 2.554688 -14.109375 1.671875 -15.265625 C 0.796875 -16.429688 0.359375 -17.8125 0.359375 -19.40625 Z M 0.359375 -19.40625 "/></g></g></g><g fill="#122620" fill-opacity="1"><g transform="translate(122.080445, 189.376706)"><g><path d="M 0 -12.09375 C 0 -13.769531 0.394531 -15.847656 1.1875 -18.328125 C 1.988281 -20.804688 3.109375 -23.257812 4.546875 -25.6875 C 5.984375 -28.125 7.640625 -30.140625 9.515625 -31.734375 C 11.398438 -33.335938 13.378906 -34.140625 15.453125 -34.140625 C 17.367188 -34.140625 18.925781 -33.578125 20.125 -32.453125 C 21.320312 -31.335938 22.039062 -30.203125 22.28125 -29.046875 C 22.519531 -27.890625 22.117188 -27.3125 21.078125 -27.3125 C 20.285156 -27.3125 19.46875 -27.769531 18.625 -28.6875 C 17.789062 -29.601562 16.8125 -30.0625 15.6875 -30.0625 C 14.8125 -30.0625 13.753906 -29.539062 12.515625 -28.5 C 11.273438 -27.46875 9.78125 -25.4375 8.03125 -22.40625 C 7.226562 -21.125 6.488281 -19.460938 5.8125 -17.421875 C 5.132812 -15.390625 4.796875 -13.375 4.796875 -11.375 C 4.953125 -11.539062 5.007812 -11.601562 4.96875 -11.5625 C 4.925781 -11.519531 5.066406 -11.660156 5.390625 -11.984375 L 6.34375 -13.421875 C 6.988281 -14.378906 7.726562 -15.613281 8.5625 -17.125 C 9.40625 -18.644531 10.265625 -20.179688 11.140625 -21.734375 C 12.015625 -23.296875 12.8125 -24.613281 13.53125 -25.6875 C 14.25 -26.769531 14.8125 -27.3125 15.21875 -27.3125 C 16.65625 -27.3125 17.492188 -26.789062 17.734375 -25.75 C 17.972656 -24.71875 18.070312 -23.441406 18.03125 -21.921875 C 17.988281 -20.398438 18.128906 -18.882812 18.453125 -17.375 C 18.929688 -15.21875 19.664062 -13.640625 20.65625 -12.640625 C 21.65625 -11.640625 22.796875 -11.140625 24.078125 -11.140625 C 26.316406 -11.140625 28.789062 -12.5 31.5 -15.21875 C 32.613281 -16.25 33.410156 -17.101562 33.890625 -17.78125 C 34.367188 -18.46875 35.007812 -19.25 35.8125 -20.125 C 36.375 -20.925781 37.09375 -21.328125 37.96875 -21.328125 C 38.84375 -21.328125 39.21875 -20.585938 39.09375 -19.109375 C 38.976562 -17.628906 37.40625 -15.410156 34.375 -12.453125 L 30.78125 -9.578125 C 28.46875 -7.984375 26.234375 -7.1875 24.078125 -7.1875 C 22.078125 -7.1875 20.335938 -7.785156 18.859375 -8.984375 C 17.390625 -10.179688 16.253906 -11.65625 15.453125 -13.40625 C 14.648438 -15.164062 14.25 -16.882812 14.25 -18.5625 C 13.695312 -18.164062 13.0625 -17.285156 12.34375 -15.921875 C 11.625 -14.566406 10.84375 -13.109375 10 -11.546875 C 9.164062 -9.992188 8.304688 -8.640625 7.421875 -7.484375 C 6.546875 -6.328125 5.671875 -5.75 4.796875 -5.75 C 2.554688 -5.75 1.195312 -6.265625 0.71875 -7.296875 C 0.238281 -8.335938 0 -9.9375 0 -12.09375 Z M 0 -12.09375 "/></g></g></g><g fill="#122620" fill-opacity="1"><g transform="translate(156.815152, 189.376706)"><g><path d="M -33.65625 -53.421875 C -33.65625 -54.460938 -32.695312 -55.5625 -30.78125 -56.71875 C -28.863281 -57.875 -26.445312 -59.007812 -23.53125 -60.125 C -20.625 -61.25 -17.550781 -62.304688 -14.3125 -63.296875 C -11.082031 -64.296875 -8.109375 -65.15625 -5.390625 -65.875 C -2.671875 -66.59375 -0.632812 -67.15625 0.71875 -67.5625 C 2.394531 -68.039062 3.570312 -68.316406 4.25 -68.390625 C 4.925781 -68.472656 5.363281 -68.734375 5.5625 -69.171875 C 5.769531 -69.609375 5.992188 -70.507812 6.234375 -71.875 C 6.867188 -75.144531 7.601562 -77.398438 8.4375 -78.640625 C 9.28125 -79.878906 10.101562 -80.5 10.90625 -80.5 C 11.539062 -80.5 12.078125 -80.15625 12.515625 -79.46875 C 12.953125 -78.789062 13.171875 -77.972656 13.171875 -77.015625 C 13.171875 -76.296875 13.128906 -75.992188 13.046875 -76.109375 C 12.972656 -76.234375 12.976562 -75.976562 13.0625 -75.34375 C 13.0625 -75.1875 13.078125 -74.988281 13.109375 -74.75 C 13.148438 -74.507812 13.171875 -74.1875 13.171875 -73.78125 C 13.171875 -72.75 12.972656 -72.234375 12.578125 -72.234375 C 12.179688 -72.234375 11.78125 -72.171875 11.375 -72.046875 C 10.976562 -71.929688 10.78125 -71.234375 10.78125 -69.953125 C 11.738281 -69.953125 12.796875 -70.09375 13.953125 -70.375 C 15.109375 -70.65625 16.128906 -70.832031 17.015625 -70.90625 C 20.523438 -71.550781 24.035156 -72.128906 27.546875 -72.640625 C 31.054688 -73.160156 34.648438 -73.421875 38.328125 -73.421875 C 40.242188 -73.421875 41.640625 -73.019531 42.515625 -72.21875 C 43.398438 -71.425781 43.722656 -70.628906 43.484375 -69.828125 C 43.242188 -69.035156 42.363281 -68.640625 40.84375 -68.640625 C 40.6875 -69.273438 40.585938 -69.570312 40.546875 -69.53125 C 40.503906 -69.488281 40.125 -69.550781 39.40625 -69.71875 C 39.082031 -69.789062 38.441406 -69.828125 37.484375 -69.828125 C 35.804688 -69.828125 33.59375 -69.644531 30.84375 -69.28125 C 28.09375 -68.925781 25.238281 -68.507812 22.28125 -68.03125 C 19.320312 -67.550781 16.6875 -67.09375 14.375 -66.65625 C 12.0625 -66.21875 10.546875 -65.921875 9.828125 -65.765625 L 7.421875 -41.203125 C 7.347656 -40.640625 7.328125 -40.039062 7.359375 -39.40625 C 7.398438 -38.769531 7.421875 -38.128906 7.421875 -37.484375 C 7.421875 -36.691406 7.359375 -36.175781 7.234375 -35.9375 C 7.117188 -35.695312 7.0625 -35.132812 7.0625 -34.25 C 7.0625 -32.5 7.101562 -30.484375 7.1875 -28.203125 C 7.269531 -25.929688 7.226562 -24.15625 7.0625 -22.875 C 6.988281 -22.15625 6.929688 -20.738281 6.890625 -18.625 C 6.847656 -16.507812 6.804688 -14.050781 6.765625 -11.25 C 6.722656 -8.457031 6.703125 -5.644531 6.703125 -2.8125 C 6.703125 0.0195312 6.703125 2.59375 6.703125 4.90625 C 6.703125 7.226562 6.742188 8.90625 6.828125 9.9375 C 6.828125 10.820312 6.925781 12.160156 7.125 13.953125 C 7.320312 15.753906 7.359375 17.375 7.234375 18.8125 C 7.117188 20.25 6.546875 20.96875 5.515625 20.96875 C 3.992188 20.96875 3.070312 20.128906 2.75 18.453125 C 2.4375 16.773438 2.28125 15.21875 2.28125 13.78125 C 2.039062 10.90625 1.898438 7.550781 1.859375 3.71875 C 1.816406 -0.113281 1.816406 -3.945312 1.859375 -7.78125 C 1.898438 -11.613281 1.921875 -14.96875 1.921875 -17.84375 L 2.28125 -23.484375 C 2.28125 -24.597656 2.28125 -26.3125 2.28125 -28.625 C 2.28125 -30.9375 2.316406 -33.390625 2.390625 -35.984375 C 2.472656 -38.585938 2.550781 -40.96875 2.625 -43.125 C 2.707031 -45.28125 2.832031 -46.796875 3 -47.671875 C 3.15625 -48.472656 3.253906 -49.429688 3.296875 -50.546875 C 3.335938 -51.660156 3.394531 -52.617188 3.46875 -53.421875 L 4.546875 -64.5625 C 4.234375 -64.476562 3.535156 -64.316406 2.453125 -64.078125 C 1.378906 -63.835938 0.519531 -63.640625 -0.125 -63.484375 C -4.03125 -62.523438 -7.757812 -61.503906 -11.3125 -60.421875 C -14.875 -59.347656 -18.53125 -58.09375 -22.28125 -56.65625 C -23 -56.332031 -23.65625 -55.988281 -24.25 -55.625 C -24.851562 -55.269531 -25.515625 -54.9375 -26.234375 -54.625 C -27.191406 -54.21875 -27.8125 -53.9375 -28.09375 -53.78125 C -28.375 -53.625 -28.515625 -53.425781 -28.515625 -53.1875 C -28.515625 -52.945312 -28.710938 -52.425781 -29.109375 -51.625 C -29.429688 -51.539062 -29.75 -51.476562 -30.0625 -51.4375 C -30.382812 -51.40625 -30.742188 -51.390625 -31.140625 -51.390625 C -31.773438 -51.390625 -32.351562 -51.523438 -32.875 -51.796875 C -33.394531 -52.078125 -33.65625 -52.617188 -33.65625 -53.421875 Z M -33.65625 -53.421875 "/></g></g></g><g fill="#122620" fill-opacity="1"><g transform="translate(170.709034, 189.376706)"><g><path d="M -0.71875 -9.9375 L 0 -23.484375 C 0.0820312 -24.359375 0.160156 -25.414062 0.234375 -26.65625 C 0.316406 -27.894531 0.398438 -28.953125 0.484375 -29.828125 C 0.640625 -33.816406 1.132812 -37.765625 1.96875 -41.671875 C 2.8125 -45.585938 3.710938 -49.460938 4.671875 -53.296875 C 5.234375 -54.898438 5.671875 -55.957031 5.984375 -56.46875 C 6.304688 -56.988281 6.75 -57.25 7.3125 -57.25 C 7.550781 -57.25 7.828125 -57.226562 8.140625 -57.1875 C 8.460938 -57.15625 8.820312 -57.097656 9.21875 -57.015625 C 9.625 -55.179688 9.546875 -53.003906 8.984375 -50.484375 C 8.421875 -47.972656 7.984375 -45.675781 7.671875 -43.59375 C 6.785156 -38.082031 6.0625 -32.015625 5.5 -25.390625 C 4.945312 -18.765625 4.671875 -12.457031 4.671875 -6.46875 L 5.03125 6.953125 L 5.984375 4.671875 C 7.109375 1.472656 8.046875 -1.21875 8.796875 -3.40625 C 9.554688 -5.601562 10.4375 -7.78125 11.4375 -9.9375 C 12.4375 -12.09375 13.773438 -14.726562 15.453125 -17.84375 C 16.328125 -19.445312 17.179688 -20.804688 18.015625 -21.921875 C 18.859375 -23.035156 20.160156 -23.59375 21.921875 -23.59375 C 22.796875 -23.59375 23.410156 -22.953125 23.765625 -21.671875 C 24.128906 -20.398438 24.351562 -19.003906 24.4375 -17.484375 C 24.519531 -15.972656 24.5625 -14.859375 24.5625 -14.140625 C 24.5625 -11.898438 24.617188 -10 24.734375 -8.4375 C 24.859375 -6.882812 25.316406 -5.347656 26.109375 -3.828125 C 27.953125 -4.234375 29.507812 -5.410156 30.78125 -7.359375 C 32.0625 -9.316406 33.21875 -11.015625 34.25 -12.453125 C 34.8125 -13.335938 35.332031 -14.21875 35.8125 -15.09375 C 36.289062 -15.96875 36.769531 -16.882812 37.25 -17.84375 C 37.96875 -19.125 38.546875 -20.003906 38.984375 -20.484375 C 39.421875 -20.960938 39.878906 -21.203125 40.359375 -21.203125 C 40.597656 -21.203125 41.039062 -21.125 41.6875 -20.96875 C 42.082031 -19.53125 42 -18.367188 41.4375 -17.484375 C 40.882812 -16.609375 40.285156 -15.570312 39.640625 -14.375 C 39.085938 -13.332031 38.332031 -11.992188 37.375 -10.359375 C 36.414062 -8.722656 35.335938 -7.125 34.140625 -5.5625 C 32.941406 -4.007812 31.660156 -2.691406 30.296875 -1.609375 C 28.941406 -0.535156 27.546875 0 26.109375 0 C 23.472656 0 21.757812 -2.351562 20.96875 -7.0625 C 20.726562 -8.425781 20.566406 -10.242188 20.484375 -12.515625 C 20.398438 -14.796875 20.359375 -16.773438 20.359375 -18.453125 C 19.804688 -18.046875 19.128906 -17.125 18.328125 -15.6875 C 17.523438 -14.25 16.722656 -12.628906 15.921875 -10.828125 C 15.128906 -9.035156 14.394531 -7.300781 13.71875 -5.625 C 13.039062 -3.945312 12.5 -2.671875 12.09375 -1.796875 C 11.132812 0.679688 10.351562 3.15625 9.75 5.625 C 9.15625 8.101562 8.5 10.460938 7.78125 12.703125 C 7.382812 13.972656 6.925781 14.785156 6.40625 15.140625 C 5.882812 15.503906 5.066406 15.6875 3.953125 15.6875 C 3.078125 15.6875 2.359375 14.925781 1.796875 13.40625 C 1.234375 11.894531 0.769531 10 0.40625 7.71875 C 0.0507812 5.445312 -0.203125 3.09375 -0.359375 0.65625 C -0.515625 -1.78125 -0.613281 -3.972656 -0.65625 -5.921875 C -0.695312 -7.878906 -0.71875 -9.21875 -0.71875 -9.9375 Z M -0.71875 -9.9375 "/></g></g></g><g fill="#122620" fill-opacity="1"><g transform="translate(207.240373, 189.376706)"><g><path d="M 0.125 -13.0625 C 0.125 -14.257812 0.257812 -15.953125 0.53125 -18.140625 C 0.8125 -20.335938 1.210938 -22.570312 1.734375 -24.84375 C 2.253906 -27.125 2.875 -29.0625 3.59375 -30.65625 C 4.3125 -32.257812 5.109375 -33.0625 5.984375 -33.0625 C 6.546875 -33.0625 6.90625 -33.019531 7.0625 -32.9375 C 7.226562 -32.851562 7.507812 -32.773438 7.90625 -32.703125 C 8.539062 -31.335938 8.597656 -29.617188 8.078125 -27.546875 C 7.566406 -25.472656 7.109375 -23.195312 6.703125 -20.71875 C 6.148438 -17.207031 5.691406 -14.09375 5.328125 -11.375 C 4.972656 -8.664062 5.191406 -5.59375 5.984375 -2.15625 C 7.179688 -2.476562 8.421875 -3.476562 9.703125 -5.15625 C 10.984375 -6.832031 12.238281 -8.804688 13.46875 -11.078125 C 14.707031 -13.359375 15.785156 -15.515625 16.703125 -17.546875 C 17.628906 -19.585938 18.332031 -21.125 18.8125 -22.15625 C 19.207031 -22.957031 19.601562 -23.875 20 -24.90625 C 20.40625 -25.945312 20.882812 -26.882812 21.4375 -27.71875 C 22 -28.5625 22.640625 -28.984375 23.359375 -28.984375 C 24.160156 -28.984375 24.5625 -28.5625 24.5625 -27.71875 C 24.5625 -26.882812 24.335938 -25.867188 23.890625 -24.671875 C 23.453125 -23.472656 22.972656 -22.273438 22.453125 -21.078125 C 21.941406 -19.878906 21.523438 -18.960938 21.203125 -18.328125 C 20.722656 -17.367188 19.960938 -15.769531 18.921875 -13.53125 C 17.890625 -11.300781 16.671875 -8.945312 15.265625 -6.46875 C 13.867188 -3.988281 12.351562 -1.890625 10.71875 -0.171875 C 9.082031 1.535156 7.46875 2.390625 5.875 2.390625 C 4.75 2.390625 3.671875 1.875 2.640625 0.84375 C 1.597656 -0.195312 0.914062 -1.535156 0.59375 -3.171875 C 0.28125 -4.804688 0.125 -6.519531 0.125 -8.3125 C 0.125 -10.113281 0.125 -11.695312 0.125 -13.0625 Z M 0.125 -13.0625 "/></g></g></g><g fill="#122620" fill-opacity="1"><g transform="translate(232.991978, 189.376706)"><g><path d="M 9.9375 0.484375 C 8.34375 0.484375 6.925781 -0.0351562 5.6875 -1.078125 C 4.445312 -2.117188 3.507812 -3.195312 2.875 -4.3125 C 1.4375 -7.03125 0.617188 -10.242188 0.421875 -13.953125 C 0.222656 -17.671875 0.441406 -21.046875 1.078125 -24.078125 C 1.234375 -24.953125 1.453125 -26.007812 1.734375 -27.25 C 2.015625 -28.488281 2.429688 -29.585938 2.984375 -30.546875 C 3.546875 -31.503906 4.226562 -31.984375 5.03125 -31.984375 C 6.863281 -31.984375 7.757812 -31.363281 7.71875 -30.125 C 7.6875 -28.882812 7.347656 -26.96875 6.703125 -24.375 C 6.066406 -21.78125 5.75 -18.445312 5.75 -14.375 C 5.75 -13.175781 5.90625 -11.738281 6.21875 -10.0625 C 6.539062 -8.382812 7.039062 -6.90625 7.71875 -5.625 C 8.40625 -4.351562 9.265625 -3.71875 10.296875 -3.71875 C 11.578125 -3.71875 13.035156 -4.273438 14.671875 -5.390625 C 16.304688 -6.503906 17.820312 -7.757812 19.21875 -9.15625 C 20.625 -10.5625 21.601562 -11.625 22.15625 -12.34375 C 22.320312 -12.5 22.765625 -13.035156 23.484375 -13.953125 C 24.203125 -14.867188 25.054688 -15.90625 26.046875 -17.0625 C 27.046875 -18.226562 28.023438 -19.25 28.984375 -20.125 C 29.941406 -21 30.703125 -21.4375 31.265625 -21.4375 C 31.816406 -21.4375 32.09375 -20.957031 32.09375 -20 C 32.09375 -19.445312 31.710938 -18.585938 30.953125 -17.421875 C 30.203125 -16.265625 29.304688 -15.046875 28.265625 -13.765625 C 27.234375 -12.492188 26.21875 -11.296875 25.21875 -10.171875 C 24.21875 -9.054688 23.476562 -8.257812 23 -7.78125 C 22.039062 -6.820312 20.898438 -5.679688 19.578125 -4.359375 C 18.265625 -3.046875 16.804688 -1.910156 15.203125 -0.953125 C 13.609375 0.00390625 11.851562 0.484375 9.9375 0.484375 Z M 6.109375 -47.078125 C 6.109375 -48.429688 6.46875 -49.609375 7.1875 -50.609375 C 7.90625 -51.609375 8.703125 -52.109375 9.578125 -52.109375 C 10.535156 -52.109375 11.335938 -51.507812 11.984375 -50.3125 C 13.097656 -48.070312 13.234375 -46.332031 12.390625 -45.09375 C 11.554688 -43.851562 10.539062 -43.234375 9.34375 -43.234375 C 8.539062 -43.234375 7.800781 -43.550781 7.125 -44.1875 C 6.445312 -44.832031 6.109375 -45.796875 6.109375 -47.078125 Z M 6.109375 -47.078125 "/></g></g></g><g fill="#122620" fill-opacity="1"><g transform="translate(260.300642, 189.376706)"><g><path d="M 0 -9.109375 C 0 -14.859375 0.140625 -20.601562 0.421875 -26.34375 C 0.703125 -32.09375 1.082031 -37.644531 1.5625 -43 C 1.632812 -43.5625 1.789062 -44.878906 2.03125 -46.953125 C 2.269531 -49.023438 2.585938 -51.4375 2.984375 -54.1875 C 3.390625 -56.945312 3.867188 -59.644531 4.421875 -62.28125 C 4.984375 -64.914062 5.625 -67.113281 6.34375 -68.875 C 7.0625 -70.632812 7.820312 -71.515625 8.625 -71.515625 C 10.21875 -71.515625 11.132812 -71.09375 11.375 -70.25 C 11.613281 -69.414062 11.535156 -68.28125 11.140625 -66.84375 C 10.742188 -65.40625 10.382812 -63.765625 10.0625 -61.921875 C 9.019531 -56.015625 8.078125 -49.625 7.234375 -42.75 C 6.398438 -35.882812 5.765625 -29.054688 5.328125 -22.265625 C 4.890625 -15.484375 4.671875 -9.257812 4.671875 -3.59375 C 4.828125 -3.75 5.304688 -4.601562 6.109375 -6.15625 C 6.910156 -7.71875 7.925781 -9.695312 9.15625 -12.09375 C 10.394531 -14.488281 11.734375 -17.023438 13.171875 -19.703125 C 14.609375 -22.378906 16.046875 -24.894531 17.484375 -27.25 C 18.921875 -29.601562 20.21875 -31.519531 21.375 -33 C 22.539062 -34.476562 23.441406 -35.21875 24.078125 -35.21875 C 25.835938 -35.21875 26.613281 -34.796875 26.40625 -33.953125 C 26.207031 -33.117188 25.550781 -31.984375 24.4375 -30.546875 C 23.320312 -29.109375 22.164062 -27.390625 20.96875 -25.390625 C 20.644531 -24.910156 20.34375 -24.453125 20.0625 -24.015625 C 19.78125 -23.578125 19.484375 -23.117188 19.171875 -22.640625 C 18.453125 -21.441406 17.972656 -20.503906 17.734375 -19.828125 C 17.492188 -19.148438 17.390625 -18.3125 17.421875 -17.3125 C 17.460938 -16.3125 17.601562 -14.65625 17.84375 -12.34375 C 18.007812 -10.664062 18.347656 -8.523438 18.859375 -5.921875 C 19.378906 -3.328125 20 -0.734375 20.71875 1.859375 C 21.4375 4.453125 22.078125 6.546875 22.640625 8.140625 C 23.273438 9.660156 23.832031 10.78125 24.3125 11.5 C 24.789062 12.21875 25.113281 12.976562 25.28125 13.78125 C 24.957031 14.09375 24.632812 14.425781 24.3125 14.78125 C 24 15.144531 23.601562 15.328125 23.125 15.328125 C 22.957031 15.328125 22.632812 15.25 22.15625 15.09375 C 21.195312 14.613281 20.378906 13.773438 19.703125 12.578125 C 19.023438 11.378906 18.46875 10.097656 18.03125 8.734375 C 17.59375 7.378906 17.210938 6.222656 16.890625 5.265625 C 16.015625 2.628906 15.296875 -0.0625 14.734375 -2.8125 C 14.171875 -5.570312 13.570312 -8.304688 12.9375 -11.015625 L 7.671875 0.484375 C 7.109375 2.234375 6.609375 4.046875 6.171875 5.921875 C 5.734375 7.804688 5.253906 9.382812 4.734375 10.65625 C 4.210938 11.9375 3.550781 12.578125 2.75 12.578125 C 1.71875 12.578125 1.0625 12.195312 0.78125 11.4375 C 0.5 10.675781 0.378906 9.738281 0.421875 8.625 C 0.460938 7.507812 0.441406 6.472656 0.359375 5.515625 C 0.273438 4.628906 0.191406 3.945312 0.109375 3.46875 C 0.0351562 2.988281 0 2.191406 0 1.078125 Z M 0 -9.109375 "/></g></g></g><path fill="#fffef9" d="M 269.191406 242.722656 C 268.023438 244.382812 266.808594 246.011719 265.542969 247.605469 C 264.277344 249.195312 262.964844 250.746094 261.609375 252.257812 C 260.25 253.773438 258.847656 255.242188 257.402344 256.671875 C 255.957031 258.101562 254.46875 259.484375 252.941406 260.824219 C 251.410156 262.164062 249.84375 263.457031 248.238281 264.707031 C 246.632812 265.953125 244.992188 267.148438 243.3125 268.296875 C 241.636719 269.445312 239.925781 270.542969 238.183594 271.589844 C 236.4375 272.632812 234.667969 273.628906 232.863281 274.566406 C 231.0625 275.507812 229.230469 276.390625 227.375 277.222656 C 225.519531 278.054688 223.640625 278.828125 221.742188 279.546875 C 219.839844 280.265625 217.917969 280.925781 215.976562 281.527344 C 214.035156 282.132812 212.078125 282.675781 210.101562 283.164062 C 208.128906 283.648438 206.144531 284.074219 204.144531 284.441406 C 202.144531 284.8125 200.136719 285.117188 198.117188 285.367188 C 196.101562 285.613281 194.078125 285.800781 192.046875 285.925781 C 190.019531 286.054688 187.988281 286.117188 185.957031 286.125 C 183.921875 286.128906 181.890625 286.074219 179.863281 285.957031 C 177.832031 285.839844 175.808594 285.664062 173.789062 285.425781 C 171.769531 285.1875 169.761719 284.890625 167.757812 284.53125 C 165.757812 284.175781 163.769531 283.757812 161.792969 283.28125 C 159.816406 282.804688 157.855469 282.269531 155.910156 281.675781 C 153.96875 281.082031 152.042969 280.429688 150.136719 279.722656 C 148.230469 279.011719 146.351562 278.25 144.492188 277.425781 C 142.628906 276.605469 140.796875 275.730469 138.992188 274.796875 C 137.183594 273.867188 135.40625 272.882812 133.65625 271.847656 C 131.910156 270.808594 130.191406 269.71875 128.507812 268.578125 C 126.828125 267.441406 125.179688 266.25 123.566406 265.011719 C 121.953125 263.773438 120.382812 262.488281 118.84375 261.15625 C 117.308594 259.824219 115.816406 258.445312 114.363281 257.023438 C 112.910156 255.601562 111.5 254.140625 110.136719 252.632812 C 108.769531 251.125 107.453125 249.582031 106.179688 247.996094 C 104.90625 246.410156 103.679688 244.789062 102.503906 243.132812 L 121.050781 229.976562 C 121.964844 231.265625 122.917969 232.527344 123.90625 233.757812 C 124.894531 234.988281 125.921875 236.191406 126.980469 237.359375 C 128.042969 238.53125 129.136719 239.667969 130.265625 240.773438 C 131.394531 241.878906 132.554688 242.949219 133.75 243.984375 C 134.941406 245.019531 136.164062 246.019531 137.417969 246.980469 C 138.671875 247.945312 139.953125 248.867188 141.257812 249.753906 C 142.566406 250.640625 143.902344 251.484375 145.257812 252.292969 C 146.617188 253.097656 148 253.863281 149.402344 254.585938 C 150.808594 255.308594 152.230469 255.988281 153.675781 256.628906 C 155.121094 257.265625 156.585938 257.859375 158.066406 258.410156 C 159.546875 258.960938 161.042969 259.46875 162.554688 259.929688 C 164.0625 260.390625 165.585938 260.808594 167.121094 261.179688 C 168.660156 261.546875 170.203125 261.871094 171.757812 262.148438 C 173.3125 262.429688 174.875 262.660156 176.445312 262.84375 C 178.015625 263.027344 179.585938 263.164062 181.164062 263.257812 C 182.742188 263.347656 184.320312 263.390625 185.898438 263.386719 C 187.480469 263.382812 189.058594 263.332031 190.632812 263.234375 C 192.210938 263.136719 193.78125 262.988281 195.351562 262.796875 C 196.917969 262.605469 198.480469 262.367188 200.03125 262.082031 C 201.585938 261.796875 203.128906 261.464844 204.664062 261.085938 C 206.199219 260.707031 207.71875 260.285156 209.226562 259.816406 C 210.738281 259.347656 212.230469 258.832031 213.707031 258.273438 C 215.183594 257.714844 216.644531 257.113281 218.085938 256.46875 C 219.527344 255.824219 220.949219 255.136719 222.351562 254.40625 C 223.75 253.675781 225.128906 252.902344 226.484375 252.089844 C 227.839844 251.277344 229.167969 250.425781 230.472656 249.535156 C 231.773438 248.640625 233.050781 247.710938 234.296875 246.742188 C 235.546875 245.773438 236.765625 244.769531 237.953125 243.726562 C 239.140625 242.6875 240.296875 241.609375 241.417969 240.5 C 242.542969 239.390625 243.632812 238.246094 244.6875 237.070312 C 245.742188 235.894531 246.761719 234.691406 247.746094 233.453125 C 248.730469 232.214844 249.675781 230.953125 250.582031 229.660156 Z M 269.191406 242.722656 " fill-opacity="1" fill-rule="nonzero"/><g fill="#122620" fill-opacity="1"><g transform="translate(109.300085, 243.223892)"><g><path d="M 11.6875 -3.390625 C 12.613281 -2.316406 13.164062 -1.097656 13.34375 0.265625 L 11.609375 0.75 C 11.378906 -0.550781 10.9375 -1.585938 10.28125 -2.359375 C 9.90625 -2.785156 9.539062 -3.050781 9.1875 -3.15625 C 8.832031 -3.269531 8.515625 -3.203125 8.234375 -2.953125 C 7.953125 -2.710938 7.8125 -2.398438 7.8125 -2.015625 C 7.8125 -1.628906 7.90625 -1.226562 8.09375 -0.8125 C 8.289062 -0.40625 8.488281 0.046875 8.6875 0.546875 C 8.882812 1.054688 9.050781 1.546875 9.1875 2.015625 C 9.320312 2.484375 9.316406 2.96875 9.171875 3.46875 C 9.035156 3.976562 8.734375 4.429688 8.265625 4.828125 C 7.535156 5.453125 6.695312 5.660156 5.75 5.453125 C 4.8125 5.253906 3.945312 4.691406 3.15625 3.765625 C 2.601562 3.128906 2.1875 2.40625 1.90625 1.59375 C 1.632812 0.789062 1.515625 0 1.546875 -0.78125 L 3.265625 -1.234375 C 3.242188 -0.472656 3.34375 0.25 3.5625 0.9375 C 3.789062 1.625 4.101562 2.191406 4.5 2.640625 C 4.925781 3.128906 5.34375 3.429688 5.75 3.546875 C 6.164062 3.671875 6.53125 3.597656 6.84375 3.328125 C 7.132812 3.085938 7.28125 2.769531 7.28125 2.375 C 7.28125 1.988281 7.179688 1.585938 6.984375 1.171875 C 6.796875 0.765625 6.597656 0.3125 6.390625 -0.1875 C 6.191406 -0.695312 6.019531 -1.179688 5.875 -1.640625 C 5.738281 -2.097656 5.734375 -2.578125 5.859375 -3.078125 C 5.992188 -3.578125 6.296875 -4.03125 6.765625 -4.4375 C 7.460938 -5.039062 8.257812 -5.242188 9.15625 -5.046875 C 10.0625 -4.859375 10.90625 -4.304688 11.6875 -3.390625 Z M 11.6875 -3.390625 "/></g></g></g><g fill="#122620" fill-opacity="1"><g transform="translate(126.015814, 260.087077)"><g><path d="M 15.109375 -2.96875 L 11.46875 2.34375 C 10.65625 3.519531 9.664062 4.210938 8.5 4.421875 C 7.332031 4.628906 6.132812 4.3125 4.90625 3.46875 C 3.6875 2.625 2.957031 1.617188 2.71875 0.453125 C 2.476562 -0.710938 2.765625 -1.882812 3.578125 -3.0625 L 7.21875 -8.375 L 8.75 -7.328125 L 5.109375 -2.015625 C 4.585938 -1.253906 4.394531 -0.507812 4.53125 0.21875 C 4.675781 0.957031 5.125 1.582031 5.875 2.09375 C 6.613281 2.601562 7.34375 2.789062 8.0625 2.65625 C 8.789062 2.519531 9.421875 2.070312 9.953125 1.3125 L 13.59375 -4 Z M 15.109375 -2.96875 "/></g></g></g><g fill="#122620" fill-opacity="1"><g transform="translate(148.486672, 273.177724)"><g><path d="M 7.953125 2.765625 L 7.140625 -1.046875 C 7.046875 -1.066406 6.890625 -1.113281 6.671875 -1.1875 L 4.203125 -2.046875 L 3.109375 1.078125 L 1.359375 0.46875 L 4.96875 -9.921875 L 9.1875 -8.453125 C 10.519531 -7.992188 11.441406 -7.328125 11.953125 -6.453125 C 12.460938 -5.578125 12.519531 -4.570312 12.125 -3.4375 C 11.832031 -2.613281 11.40625 -1.976562 10.84375 -1.53125 C 10.28125 -1.09375 9.601562 -0.859375 8.8125 -0.828125 L 9.9375 3.453125 Z M 4.75 -3.625 L 7.21875 -2.765625 C 8.90625 -2.179688 9.988281 -2.585938 10.46875 -3.984375 C 10.9375 -5.328125 10.328125 -6.289062 8.640625 -6.875 L 6.171875 -7.734375 Z M 4.75 -3.625 "/></g></g></g><g fill="#122620" fill-opacity="1"><g transform="translate(172.784063, 279.558206)"><g><path d="M 3.28125 0.34375 L 1.421875 0.15625 L 2.59375 -10.78125 L 4.453125 -10.59375 Z M 3.28125 0.34375 "/></g></g></g><g fill="#122620" fill-opacity="1"><g transform="translate(191.368381, 280.374503)"><g><path d="M 10.875 -1.390625 L 9.078125 -1.15625 L 2.265625 -8.25 L 3.265625 -0.421875 L 1.421875 -0.1875 L 0.03125 -11.09375 L 1.84375 -11.3125 L 8.6875 -4.21875 L 7.6875 -12.0625 L 9.484375 -12.296875 Z M 10.875 -1.390625 "/></g></g></g><g fill="#122620" fill-opacity="1"><g transform="translate(217.251449, 275.078491)"><g><path d="M 5.046875 -12.15625 L -0.5 -9.875 L 0.625 -7.125 L 5.59375 -9.171875 L 6.234375 -7.625 L 1.265625 -5.578125 L 2.40625 -2.796875 L 8.125 -5.15625 L 8.765625 -3.609375 L 1.328125 -0.546875 L -2.859375 -10.71875 L 4.40625 -13.703125 Z M 5.046875 -12.15625 "/></g></g></g><g fill="#122620" fill-opacity="1"><g transform="translate(239.02308, 264.268598)"><g><path d="M 8.703125 -6.671875 L 7.265625 -5.578125 L -2.1875 -8.265625 L 2.609375 -2 L 1.140625 -0.875 L -5.546875 -9.609375 L -4.09375 -10.71875 L 5.375 -8.03125 L 0.578125 -14.3125 L 2.015625 -15.40625 Z M 8.703125 -6.671875 "/></g></g></g><g fill="#122620" fill-opacity="1"><g transform="translate(258.519051, 246.719709)"><g><path d="M 2.078125 -2.5625 L 0.90625 -1.109375 L -7.625 -8.046875 L -6.453125 -9.5 Z M 2.078125 -2.5625 "/></g></g></g></svg>